<mxfile host="app.diagrams.net" modified="2024-01-24T09:40:28.457Z" agent="Mozilla/5.0 (Windows NT 10.0; Win64; x64) AppleWebKit/537.36 (KHTML, like Gecko) Chrome/119.0.0.0 Safari/537.36" etag="EiSb2fZZhbxUBhbPQNV1" version="22.1.18" type="github">
  <diagram name="Side-1" id="svqQulUeOBDjTAGsCi2p">
    <mxGraphModel dx="2358" dy="1513" grid="0" gridSize="10" guides="1" tooltips="0" connect="0" arrows="0" fold="1" page="0" pageScale="1.5" pageWidth="1169" pageHeight="827" background="#ffffff" math="0" shadow="1">
      <root>
        <mxCell id="0" />
        <mxCell id="1" parent="0" />
        <mxCell id="lYbMJt9OuOAuE3FdUUvH-2" value="EEG (209-210 + 212)" style="swimlane;whiteSpace=wrap;html=1;hachureGap=4;fontFamily=Verdana;fontSize=18;swimlaneFillColor=#E6E6E6;startSize=35;rounded=0;labelBackgroundColor=none;fillStyle=solid;fillColor=#548C82;fontColor=#FFFFFF;shadow=1;fontStyle=0;glass=0;" parent="1" vertex="1">
          <mxGeometry x="80" y="2580" width="660" height="900" as="geometry" />
        </mxCell>
        <mxCell id="3jGWB9efROOq3MFtMo3v-24" value="" style="shape=trapezoid;perimeter=trapezoidPerimeter;whiteSpace=wrap;html=1;fixedSize=1;rounded=1;size=22.5;arcSize=17;rotation=-180;labelBackgroundColor=none;shadow=0;fillStyle=solid;allowArrows=1;snapToPoint=0;strokeWidth=2;perimeterSpacing=0;labelBorderColor=none;fillColor=#9AC7BF;fontSize=18;fontFamily=Verdana;sketch=1;curveFitting=1;jiggle=2;" parent="lYbMJt9OuOAuE3FdUUvH-2" vertex="1">
          <mxGeometry x="30" y="90" width="600" height="100" as="geometry" />
        </mxCell>
        <mxCell id="3jGWB9efROOq3MFtMo3v-30" value="Klud Grøn" style="rounded=1;whiteSpace=wrap;html=1;hachureGap=4;fontFamily=Verdana;fontSize=18;strokeWidth=1;direction=west;rotation=0;sketch=1;curveFitting=1;jiggle=2;" parent="lYbMJt9OuOAuE3FdUUvH-2" vertex="1">
          <mxGeometry x="90" y="100" width="60" height="80" as="geometry" />
        </mxCell>
        <mxCell id="lYbMJt9OuOAuE3FdUUvH-6" value="" style="shape=trapezoid;perimeter=trapezoidPerimeter;whiteSpace=wrap;html=1;fixedSize=1;rounded=1;size=22.5;arcSize=17;rotation=-180;labelBackgroundColor=none;shadow=0;fillStyle=solid;allowArrows=1;snapToPoint=0;strokeWidth=2;perimeterSpacing=0;labelBorderColor=none;fillColor=#9AC7BF;fontSize=18;fontFamily=Verdana;sketch=1;curveFitting=1;jiggle=2;" parent="lYbMJt9OuOAuE3FdUUvH-2" vertex="1">
          <mxGeometry x="30" y="210" width="600" height="100" as="geometry" />
        </mxCell>
        <mxCell id="lYbMJt9OuOAuE3FdUUvH-8" value="" style="shape=trapezoid;perimeter=trapezoidPerimeter;whiteSpace=wrap;html=1;fixedSize=1;rounded=1;size=22.5;arcSize=17;rotation=-180;labelBackgroundColor=none;shadow=0;fillStyle=solid;allowArrows=1;snapToPoint=0;strokeWidth=2;perimeterSpacing=0;labelBorderColor=none;fillColor=#9AC7BF;fontSize=18;fontFamily=Verdana;sketch=1;curveFitting=1;jiggle=2;" parent="lYbMJt9OuOAuE3FdUUvH-2" vertex="1">
          <mxGeometry x="30" y="330" width="600" height="100" as="geometry" />
        </mxCell>
        <mxCell id="lYbMJt9OuOAuE3FdUUvH-9" value="" style="shape=trapezoid;perimeter=trapezoidPerimeter;whiteSpace=wrap;html=1;fixedSize=1;rounded=1;size=22.5;arcSize=17;rotation=-180;labelBackgroundColor=none;shadow=0;fillStyle=solid;allowArrows=1;snapToPoint=0;strokeWidth=2;perimeterSpacing=0;labelBorderColor=none;fillColor=#9AC7BF;fontSize=18;fontFamily=Verdana;sketch=1;curveFitting=1;jiggle=2;" parent="lYbMJt9OuOAuE3FdUUvH-2" vertex="1">
          <mxGeometry x="30" y="450" width="600" height="100" as="geometry" />
        </mxCell>
        <mxCell id="lYbMJt9OuOAuE3FdUUvH-10" value="" style="shape=trapezoid;perimeter=trapezoidPerimeter;whiteSpace=wrap;html=1;fixedSize=1;rounded=1;size=22.5;arcSize=17;rotation=-180;labelBackgroundColor=none;shadow=0;fillStyle=solid;allowArrows=1;snapToPoint=0;strokeWidth=2;perimeterSpacing=0;labelBorderColor=none;fillColor=#9AC7BF;fontSize=18;fontFamily=Verdana;sketch=1;curveFitting=1;jiggle=2;" parent="lYbMJt9OuOAuE3FdUUvH-2" vertex="1">
          <mxGeometry x="30" y="570" width="600" height="100" as="geometry" />
        </mxCell>
        <mxCell id="lYbMJt9OuOAuE3FdUUvH-11" value="" style="shape=trapezoid;perimeter=trapezoidPerimeter;whiteSpace=wrap;html=1;fixedSize=1;rounded=1;size=22.5;arcSize=17;rotation=-180;labelBackgroundColor=none;shadow=0;fillStyle=solid;allowArrows=1;snapToPoint=0;strokeWidth=2;perimeterSpacing=0;labelBorderColor=none;fillColor=#9AC7BF;fontSize=18;fontFamily=Verdana;sketch=1;curveFitting=1;jiggle=2;" parent="lYbMJt9OuOAuE3FdUUvH-2" vertex="1">
          <mxGeometry x="30" y="690" width="600" height="150" as="geometry" />
        </mxCell>
        <mxCell id="lYbMJt9OuOAuE3FdUUvH-13" value="Klud Blå" style="rounded=1;whiteSpace=wrap;html=1;hachureGap=4;fontFamily=Verdana;fontSize=18;strokeWidth=1;direction=west;rotation=0;sketch=1;curveFitting=1;jiggle=2;" parent="lYbMJt9OuOAuE3FdUUvH-2" vertex="1">
          <mxGeometry x="160" y="100" width="60" height="80" as="geometry" />
        </mxCell>
        <mxCell id="lYbMJt9OuOAuE3FdUUvH-14" value="Serviet&lt;br style=&quot;font-size: 18px;&quot;&gt;eth./klor" style="rounded=1;whiteSpace=wrap;html=1;hachureGap=4;fontFamily=Verdana;fontSize=18;strokeWidth=1;direction=west;rotation=0;sketch=1;curveFitting=1;jiggle=2;" parent="lYbMJt9OuOAuE3FdUUvH-2" vertex="1">
          <mxGeometry x="240" y="100" width="100" height="80" as="geometry" />
        </mxCell>
        <mxCell id="lYbMJt9OuOAuE3FdUUvH-15" value="Opkast-pose" style="rounded=1;whiteSpace=wrap;html=1;hachureGap=4;fontFamily=Verdana;fontSize=18;strokeWidth=1;direction=west;rotation=0;sketch=1;curveFitting=1;jiggle=2;" parent="lYbMJt9OuOAuE3FdUUvH-2" vertex="1">
          <mxGeometry x="390" y="100" width="80" height="80" as="geometry" />
        </mxCell>
        <mxCell id="lYbMJt9OuOAuE3FdUUvH-16" value="Urin-kolbe" style="rounded=1;whiteSpace=wrap;html=1;hachureGap=4;fontFamily=Verdana;fontSize=18;strokeWidth=1;direction=west;rotation=0;sketch=1;curveFitting=1;jiggle=2;" parent="lYbMJt9OuOAuE3FdUUvH-2" vertex="1">
          <mxGeometry x="480" y="100" width="80" height="80" as="geometry" />
        </mxCell>
        <mxCell id="lYbMJt9OuOAuE3FdUUvH-20" value="Elektrode&lt;br&gt;EKG WhiteS&lt;br style=&quot;font-size: 18px;&quot;&gt;38x19mm" style="rounded=1;whiteSpace=wrap;html=1;hachureGap=4;fontFamily=Verdana;fontSize=18;strokeWidth=1;direction=west;rotation=0;spacingRight=2;spacingLeft=2;sketch=1;curveFitting=1;jiggle=2;" parent="lYbMJt9OuOAuE3FdUUvH-2" vertex="1">
          <mxGeometry x="90" y="580" width="160" height="80" as="geometry" />
        </mxCell>
        <mxCell id="lYbMJt9OuOAuE3FdUUvH-25" value="Elektrode &lt;br style=&quot;font-size: 18px;&quot;&gt;EKG BlueS P&amp;nbsp;&lt;br style=&quot;font-size: 18px;&quot;&gt;Ø34mm" style="rounded=1;whiteSpace=wrap;html=1;hachureGap=4;fontFamily=Verdana;fontSize=18;strokeWidth=1;direction=west;rotation=0;spacingRight=2;spacingLeft=2;sketch=1;curveFitting=1;jiggle=2;" parent="lYbMJt9OuOAuE3FdUUvH-2" vertex="1">
          <mxGeometry x="270" y="580" width="160" height="80" as="geometry" />
        </mxCell>
        <mxCell id="lYbMJt9OuOAuE3FdUUvH-26" value="Tape&lt;br style=&quot;font-size: 18px;&quot;&gt;2,5cm" style="rounded=1;whiteSpace=wrap;html=1;hachureGap=4;fontFamily=Verdana;fontSize=18;strokeWidth=1;direction=west;rotation=0;spacingRight=2;spacingLeft=2;sketch=1;curveFitting=1;jiggle=2;" parent="lYbMJt9OuOAuE3FdUUvH-2" vertex="1">
          <mxGeometry x="90" y="340" width="70" height="80" as="geometry" />
        </mxCell>
        <mxCell id="lYbMJt9OuOAuE3FdUUvH-27" value="Vatpind" style="rounded=1;whiteSpace=wrap;html=1;hachureGap=4;fontFamily=Verdana;fontSize=18;strokeWidth=1;direction=west;rotation=-90;spacingRight=2;spacingLeft=2;sketch=1;curveFitting=1;jiggle=2;" parent="lYbMJt9OuOAuE3FdUUvH-2" vertex="1">
          <mxGeometry x="90" y="476" width="80" height="50" as="geometry" />
        </mxCell>
        <mxCell id="lYbMJt9OuOAuE3FdUUvH-28" value="Tunge-spatel" style="rounded=1;whiteSpace=wrap;html=1;hachureGap=4;fontFamily=Verdana;fontSize=18;strokeWidth=1;direction=west;rotation=-90;spacingRight=2;spacingLeft=2;sketch=1;curveFitting=1;jiggle=2;" parent="lYbMJt9OuOAuE3FdUUvH-2" vertex="1">
          <mxGeometry x="160" y="470" width="80" height="60" as="geometry" />
        </mxCell>
        <mxCell id="lYbMJt9OuOAuE3FdUUvH-29" value="Gaze DANAMULL&lt;br style=&quot;font-size: 18px;&quot;&gt;6cmX4m" style="rounded=1;whiteSpace=wrap;html=1;hachureGap=4;fontFamily=Verdana;fontSize=18;strokeWidth=1;direction=west;rotation=0;spacingRight=2;spacingLeft=2;sketch=1;curveFitting=1;jiggle=2;" parent="lYbMJt9OuOAuE3FdUUvH-2" vertex="1">
          <mxGeometry x="360" y="340" width="130" height="80" as="geometry" />
        </mxCell>
        <mxCell id="lYbMJt9OuOAuE3FdUUvH-36" value="Netfiks. (S)" style="rounded=1;whiteSpace=wrap;html=1;hachureGap=4;fontFamily=Verdana;fontSize=18;strokeWidth=1;direction=west;rotation=-90;spacingRight=2;spacingLeft=2;sketch=1;curveFitting=1;jiggle=2;" parent="lYbMJt9OuOAuE3FdUUvH-2" vertex="1">
          <mxGeometry x="160" y="356" width="80" height="50" as="geometry" />
        </mxCell>
        <mxCell id="lYbMJt9OuOAuE3FdUUvH-37" value="Netfiks. (M)" style="rounded=1;whiteSpace=wrap;html=1;hachureGap=4;fontFamily=Verdana;fontSize=18;strokeWidth=1;direction=west;rotation=-90;spacingRight=2;spacingLeft=2;sketch=1;curveFitting=1;jiggle=2;" parent="lYbMJt9OuOAuE3FdUUvH-2" vertex="1">
          <mxGeometry x="220" y="356" width="80" height="50" as="geometry" />
        </mxCell>
        <mxCell id="lYbMJt9OuOAuE3FdUUvH-38" value="Netfiks. (L)" style="rounded=1;whiteSpace=wrap;html=1;hachureGap=4;fontFamily=Verdana;fontSize=18;strokeWidth=1;direction=west;rotation=-90;spacingRight=2;spacingLeft=2;sketch=1;curveFitting=1;jiggle=2;" parent="lYbMJt9OuOAuE3FdUUvH-2" vertex="1">
          <mxGeometry x="280" y="356" width="80" height="50" as="geometry" />
        </mxCell>
        <mxCell id="lYbMJt9OuOAuE3FdUUvH-39" value="Pasta&lt;br style=&quot;font-size: 18px;&quot;&gt;NuPrep" style="rounded=1;whiteSpace=wrap;html=1;hachureGap=4;fontFamily=Verdana;fontSize=18;strokeWidth=1;direction=west;rotation=0;spacingRight=2;spacingLeft=2;sketch=1;curveFitting=1;jiggle=2;" parent="lYbMJt9OuOAuE3FdUUvH-2" vertex="1">
          <mxGeometry x="230" y="220" width="120" height="80" as="geometry" />
        </mxCell>
        <mxCell id="lYbMJt9OuOAuE3FdUUvH-40" value="Pasta&lt;br style=&quot;font-size: 18px;&quot;&gt;Ten20" style="rounded=1;whiteSpace=wrap;html=1;hachureGap=4;fontFamily=Verdana;fontSize=18;strokeWidth=1;direction=west;rotation=0;spacingRight=2;spacingLeft=2;sketch=1;curveFitting=1;jiggle=2;" parent="lYbMJt9OuOAuE3FdUUvH-2" vertex="1">
          <mxGeometry x="90" y="220" width="120" height="80" as="geometry" />
        </mxCell>
        <mxCell id="lYbMJt9OuOAuE3FdUUvH-41" value="Elektrode&lt;br style=&quot;font-size: 18px;&quot;&gt;EEG cup&lt;br style=&quot;font-size: 18px;&quot;&gt;27stk/pos 100cm" style="rounded=1;whiteSpace=wrap;html=1;hachureGap=4;fontFamily=Verdana;fontSize=18;strokeWidth=1;direction=west;rotation=0;spacingRight=2;spacingLeft=2;sketch=1;curveFitting=1;jiggle=2;" parent="lYbMJt9OuOAuE3FdUUvH-2" vertex="1">
          <mxGeometry x="100" y="710" width="460" height="110" as="geometry" />
        </mxCell>
        <mxCell id="lYbMJt9OuOAuE3FdUUvH-42" value="ECI&lt;br style=&quot;font-size: 18px;&quot;&gt;Elektro-Gel" style="rounded=1;whiteSpace=wrap;html=1;hachureGap=4;fontFamily=Verdana;fontSize=18;strokeWidth=1;direction=west;rotation=0;spacingRight=2;spacingLeft=2;sketch=1;curveFitting=1;jiggle=2;" parent="lYbMJt9OuOAuE3FdUUvH-2" vertex="1">
          <mxGeometry x="370" y="220" width="120" height="80" as="geometry" />
        </mxCell>
        <mxCell id="lYbMJt9OuOAuE3FdUUvH-43" value="Sprøjte 10ml" style="rounded=1;whiteSpace=wrap;html=1;hachureGap=4;fontFamily=Verdana;fontSize=18;strokeWidth=1;direction=west;rotation=0;spacingRight=2;spacingLeft=2;sketch=1;curveFitting=1;jiggle=2;" parent="lYbMJt9OuOAuE3FdUUvH-2" vertex="1">
          <mxGeometry x="260" y="460" width="80" height="80" as="geometry" />
        </mxCell>
        <mxCell id="lYbMJt9OuOAuE3FdUUvH-44" value="Dispens&lt;br style=&quot;font-size: 18px;&quot;&gt;tip" style="rounded=1;whiteSpace=wrap;html=1;hachureGap=4;fontFamily=Verdana;fontSize=18;strokeWidth=1;direction=west;rotation=0;spacingRight=2;spacingLeft=2;sketch=1;curveFitting=1;jiggle=2;" parent="lYbMJt9OuOAuE3FdUUvH-2" vertex="1">
          <mxGeometry x="360" y="460" width="80" height="80" as="geometry" />
        </mxCell>
        <mxCell id="wIaHaO2FN9Urou3l482N-1" value="EMG/ENG (201-204 + 206-207)" style="swimlane;whiteSpace=wrap;html=1;hachureGap=4;fontFamily=Verdana;fontSize=18;swimlaneFillColor=#E6E6E6;startSize=35;rounded=0;labelBackgroundColor=none;fillStyle=solid;fillColor=#B3400E;fontColor=#FFFFFF;shadow=1;fontStyle=0;glass=0;" parent="1" vertex="1">
          <mxGeometry x="81" y="-254" width="659" height="799" as="geometry" />
        </mxCell>
        <mxCell id="wIaHaO2FN9Urou3l482N-2" value="" style="shape=trapezoid;perimeter=trapezoidPerimeter;whiteSpace=wrap;html=1;fixedSize=1;rounded=1;size=22.5;arcSize=17;rotation=-180;labelBackgroundColor=none;shadow=1;fillStyle=solid;allowArrows=1;snapToPoint=0;strokeWidth=2;perimeterSpacing=0;labelBorderColor=none;fillColor=#F0B199;fontSize=18;fontFamily=Verdana;sketch=1;curveFitting=1;jiggle=2;" parent="wIaHaO2FN9Urou3l482N-1" vertex="1">
          <mxGeometry x="34" y="63" width="600" height="100" as="geometry" />
        </mxCell>
        <mxCell id="wIaHaO2FN9Urou3l482N-4" value="" style="shape=trapezoid;perimeter=trapezoidPerimeter;whiteSpace=wrap;html=1;fixedSize=1;rounded=1;size=22.5;arcSize=17;rotation=-180;labelBackgroundColor=none;shadow=1;fillStyle=solid;allowArrows=1;snapToPoint=0;strokeWidth=2;perimeterSpacing=0;labelBorderColor=none;fillColor=#F0B199;fontSize=18;fontFamily=Verdana;sketch=1;curveFitting=1;jiggle=2;" parent="wIaHaO2FN9Urou3l482N-1" vertex="1">
          <mxGeometry x="34" y="183" width="600" height="100" as="geometry" />
        </mxCell>
        <mxCell id="wIaHaO2FN9Urou3l482N-5" value="" style="shape=trapezoid;perimeter=trapezoidPerimeter;whiteSpace=wrap;html=1;fixedSize=1;rounded=1;size=22.5;arcSize=17;rotation=-180;labelBackgroundColor=none;shadow=1;fillStyle=solid;allowArrows=1;snapToPoint=0;strokeWidth=2;perimeterSpacing=0;labelBorderColor=none;fillColor=#F0B199;fontSize=18;fontFamily=Verdana;sketch=1;curveFitting=1;jiggle=2;" parent="wIaHaO2FN9Urou3l482N-1" vertex="1">
          <mxGeometry x="34" y="303" width="600" height="100" as="geometry" />
        </mxCell>
        <mxCell id="wIaHaO2FN9Urou3l482N-6" value="" style="shape=trapezoid;perimeter=trapezoidPerimeter;whiteSpace=wrap;html=1;fixedSize=1;rounded=1;size=22.5;arcSize=17;rotation=-180;labelBackgroundColor=none;shadow=1;fillStyle=solid;allowArrows=1;snapToPoint=0;strokeWidth=2;perimeterSpacing=0;labelBorderColor=none;fillColor=#F0B199;fontSize=18;fontFamily=Verdana;sketch=1;curveFitting=1;jiggle=2;" parent="wIaHaO2FN9Urou3l482N-1" vertex="1">
          <mxGeometry x="34" y="423" width="600" height="100" as="geometry" />
        </mxCell>
        <mxCell id="wIaHaO2FN9Urou3l482N-7" value="" style="shape=trapezoid;perimeter=trapezoidPerimeter;whiteSpace=wrap;html=1;fixedSize=1;rounded=1;size=22.5;arcSize=17;rotation=-180;labelBackgroundColor=none;shadow=1;fillStyle=solid;allowArrows=1;snapToPoint=0;strokeWidth=2;perimeterSpacing=0;labelBorderColor=none;fillColor=#F0B199;fontSize=18;fontFamily=Verdana;sketch=1;curveFitting=1;jiggle=2;" parent="wIaHaO2FN9Urou3l482N-1" vertex="1">
          <mxGeometry x="34" y="543" width="600" height="100" as="geometry" />
        </mxCell>
        <mxCell id="wIaHaO2FN9Urou3l482N-8" value="" style="shape=trapezoid;perimeter=trapezoidPerimeter;whiteSpace=wrap;html=1;fixedSize=1;rounded=1;size=22.5;arcSize=17;rotation=-180;labelBackgroundColor=none;shadow=1;fillStyle=solid;allowArrows=1;snapToPoint=0;strokeWidth=2;perimeterSpacing=0;labelBorderColor=none;fillColor=#F0B199;fontSize=18;fontFamily=Verdana;sketch=1;curveFitting=1;jiggle=2;" parent="wIaHaO2FN9Urou3l482N-1" vertex="1">
          <mxGeometry x="34" y="666" width="600" height="100" as="geometry" />
        </mxCell>
        <mxCell id="wIaHaO2FN9Urou3l482N-13" value="Elektrode Jord&lt;br style=&quot;font-size: 18px;&quot;&gt;100cm" style="rounded=1;whiteSpace=wrap;html=1;hachureGap=4;fontFamily=Verdana;fontSize=18;strokeWidth=1;direction=west;rotation=0;spacingRight=2;spacingLeft=2;sketch=1;curveFitting=1;jiggle=2;" parent="wIaHaO2FN9Urou3l482N-1" vertex="1">
          <mxGeometry x="272" y="676" width="100" height="80" as="geometry" />
        </mxCell>
        <mxCell id="wIaHaO2FN9Urou3l482N-14" value="Elektrode&lt;br style=&quot;font-size: 18px;&quot;&gt;BlueS NF" style="rounded=1;whiteSpace=wrap;html=1;hachureGap=4;fontFamily=Verdana;fontSize=18;strokeWidth=1;direction=west;rotation=0;spacingRight=2;spacingLeft=2;sketch=1;curveFitting=1;jiggle=2;" parent="wIaHaO2FN9Urou3l482N-1" vertex="1">
          <mxGeometry x="88" y="676" width="160" height="80" as="geometry" />
        </mxCell>
        <mxCell id="wIaHaO2FN9Urou3l482N-22" value="Gel - ultralyd" style="rounded=1;whiteSpace=wrap;html=1;hachureGap=4;fontFamily=Verdana;fontSize=18;strokeWidth=1;direction=west;rotation=0;spacingRight=2;spacingLeft=2;shadow=0;sketch=1;curveFitting=1;jiggle=2;" parent="wIaHaO2FN9Urou3l482N-1" vertex="1">
          <mxGeometry x="90" y="193" width="84" height="80" as="geometry" />
        </mxCell>
        <mxCell id="wIaHaO2FN9Urou3l482N-28" value="Elektrode Jord&lt;br style=&quot;font-size: 18px;&quot;&gt;150cm" style="rounded=1;whiteSpace=wrap;html=1;hachureGap=4;fontFamily=Verdana;fontSize=18;strokeWidth=1;direction=west;rotation=0;spacingRight=2;spacingLeft=2;sketch=1;curveFitting=1;jiggle=2;" parent="wIaHaO2FN9Urou3l482N-1" vertex="1">
          <mxGeometry x="392" y="676" width="100" height="80" as="geometry" />
        </mxCell>
        <mxCell id="Ygx26Ma0uc5o6EwyQJRm-1" value="Pasta&lt;br style=&quot;font-size: 18px;&quot;&gt;NuPrep" style="rounded=1;whiteSpace=wrap;html=1;hachureGap=4;fontFamily=Verdana;fontSize=18;strokeWidth=1;direction=west;rotation=0;spacingRight=2;spacingLeft=2;sketch=1;curveFitting=1;jiggle=2;shadow=1;" vertex="1" parent="wIaHaO2FN9Urou3l482N-1">
          <mxGeometry x="194" y="193" width="120" height="80" as="geometry" />
        </mxCell>
        <mxCell id="wIaHaO2FN9Urou3l482N-9" value="Klud Blå" style="rounded=1;whiteSpace=wrap;html=1;hachureGap=4;fontFamily=Verdana;fontSize=18;strokeWidth=1;direction=west;rotation=0;sketch=1;curveFitting=1;jiggle=2;" parent="wIaHaO2FN9Urou3l482N-1" vertex="1">
          <mxGeometry x="68" y="313" width="60" height="80" as="geometry" />
        </mxCell>
        <mxCell id="wIaHaO2FN9Urou3l482N-3" value="Klud Grøn" style="rounded=1;whiteSpace=wrap;html=1;hachureGap=4;fontFamily=Verdana;fontSize=18;strokeWidth=1;direction=west;rotation=0;sketch=1;curveFitting=1;jiggle=2;" parent="wIaHaO2FN9Urou3l482N-1" vertex="1">
          <mxGeometry x="140" y="313" width="60" height="80" as="geometry" />
        </mxCell>
        <mxCell id="wIaHaO2FN9Urou3l482N-10" value="Serviet&lt;br style=&quot;font-size: 18px;&quot;&gt;eth./klor" style="rounded=1;whiteSpace=wrap;html=1;hachureGap=4;fontFamily=Verdana;fontSize=18;strokeWidth=1;direction=west;rotation=0;shadow=0;sketch=1;curveFitting=1;jiggle=2;" parent="wIaHaO2FN9Urou3l482N-1" vertex="1">
          <mxGeometry x="214" y="313" width="100" height="80" as="geometry" />
        </mxCell>
        <mxCell id="wIaHaO2FN9Urou3l482N-11" value="Opkast-pose" style="rounded=1;whiteSpace=wrap;html=1;hachureGap=4;fontFamily=Verdana;fontSize=18;strokeWidth=1;direction=west;rotation=0;sketch=1;curveFitting=1;jiggle=2;" parent="wIaHaO2FN9Urou3l482N-1" vertex="1">
          <mxGeometry x="332" y="313" width="80" height="80" as="geometry" />
        </mxCell>
        <mxCell id="wIaHaO2FN9Urou3l482N-12" value="Urin-kolbe" style="rounded=1;whiteSpace=wrap;html=1;hachureGap=4;fontFamily=Verdana;fontSize=18;strokeWidth=1;direction=west;rotation=0;sketch=1;curveFitting=1;jiggle=2;" parent="wIaHaO2FN9Urou3l482N-1" vertex="1">
          <mxGeometry x="427" y="313" width="80" height="80" as="geometry" />
        </mxCell>
        <mxCell id="Ygx26Ma0uc5o6EwyQJRm-2" value="Tape&lt;br style=&quot;font-size: 18px;&quot;&gt;2,5 cm" style="rounded=1;whiteSpace=wrap;html=1;hachureGap=4;fontFamily=Verdana;fontSize=18;strokeWidth=1;direction=west;rotation=0;spacingRight=2;spacingLeft=2;sketch=1;curveFitting=1;jiggle=2;" vertex="1" parent="wIaHaO2FN9Urou3l482N-1">
          <mxGeometry x="158" y="433" width="54" height="80" as="geometry" />
        </mxCell>
        <mxCell id="Ygx26Ma0uc5o6EwyQJRm-3" value="Tape&lt;br style=&quot;font-size: 18px;&quot;&gt;1,25 cm" style="rounded=1;whiteSpace=wrap;html=1;hachureGap=4;fontFamily=Verdana;fontSize=18;strokeWidth=1;direction=west;rotation=0;spacingRight=2;spacingLeft=2;sketch=1;curveFitting=1;jiggle=2;" vertex="1" parent="wIaHaO2FN9Urou3l482N-1">
          <mxGeometry x="77" y="433" width="58" height="80" as="geometry" />
        </mxCell>
        <mxCell id="wIaHaO2FN9Urou3l482N-17" value="Tunge-spatel" style="rounded=1;whiteSpace=wrap;html=1;hachureGap=4;fontFamily=Verdana;fontSize=18;strokeWidth=1;direction=west;rotation=-90;spacingRight=2;spacingLeft=2;sketch=1;curveFitting=1;jiggle=2;" parent="wIaHaO2FN9Urou3l482N-1" vertex="1">
          <mxGeometry x="228" y="443" width="80" height="60" as="geometry" />
        </mxCell>
        <mxCell id="wIaHaO2FN9Urou3l482N-16" value="Vatpind" style="rounded=1;whiteSpace=wrap;html=1;hachureGap=4;fontFamily=Verdana;fontSize=18;strokeWidth=1;direction=west;rotation=-90;spacingRight=2;spacingLeft=2;sketch=1;curveFitting=1;jiggle=2;" parent="wIaHaO2FN9Urou3l482N-1" vertex="1">
          <mxGeometry x="302" y="448" width="80" height="50" as="geometry" />
        </mxCell>
        <mxCell id="wIaHaO2FN9Urou3l482N-26" value="Pincet" style="rounded=1;whiteSpace=wrap;html=1;hachureGap=4;fontFamily=Verdana;fontSize=18;strokeWidth=1;direction=west;rotation=0;spacingRight=2;spacingLeft=2;sketch=1;curveFitting=1;jiggle=2;" parent="wIaHaO2FN9Urou3l482N-1" vertex="1">
          <mxGeometry x="389" y="433" width="80" height="80" as="geometry" />
        </mxCell>
        <mxCell id="wIaHaO2FN9Urou3l482N-31" value="Gazekompres&lt;br style=&quot;font-size: 18px;&quot;&gt;7,5x7,5cm" style="rounded=1;whiteSpace=wrap;html=1;hachureGap=4;fontFamily=Verdana;fontSize=18;strokeWidth=1;direction=west;rotation=0;spacingRight=2;spacingLeft=2;sketch=1;curveFitting=1;jiggle=2;" parent="wIaHaO2FN9Urou3l482N-1" vertex="1">
          <mxGeometry x="228" y="553" width="148" height="80" as="geometry" />
        </mxCell>
        <mxCell id="wIaHaO2FN9Urou3l482N-80" value="Cotton Viskers" style="rounded=1;whiteSpace=wrap;html=1;hachureGap=4;fontFamily=Verdana;fontSize=18;strokeWidth=1;direction=west;rotation=0;spacingRight=2;spacingLeft=2;sketch=1;curveFitting=1;jiggle=2;" parent="wIaHaO2FN9Urou3l482N-1" vertex="1">
          <mxGeometry x="84" y="553" width="126" height="80" as="geometry" />
        </mxCell>
        <mxCell id="Ygx26Ma0uc5o6EwyQJRm-5" value="&lt;font style=&quot;font-size: 10px;&quot;&gt;201 + 207&lt;/font&gt;" style="rounded=1;whiteSpace=wrap;html=1;hachureGap=4;fontFamily=Verdana;fontSize=18;strokeWidth=1;direction=west;rotation=0;spacingRight=2;spacingLeft=2;shadow=0;sketch=1;curveFitting=1;jiggle=2;" vertex="1" parent="wIaHaO2FN9Urou3l482N-1">
          <mxGeometry x="96.5" y="187" width="71" height="16" as="geometry" />
        </mxCell>
        <mxCell id="Ygx26Ma0uc5o6EwyQJRm-43" value="&lt;font style=&quot;font-size: 14px;&quot;&gt;1&lt;/font&gt;" style="ellipse;whiteSpace=wrap;html=1;aspect=fixed;sketch=1;curveFitting=1;jiggle=2;" vertex="1" parent="wIaHaO2FN9Urou3l482N-1">
          <mxGeometry x="25" y="56" width="29" height="29" as="geometry" />
        </mxCell>
        <mxCell id="Ygx26Ma0uc5o6EwyQJRm-45" value="&lt;font style=&quot;font-size: 14px;&quot;&gt;2&lt;/font&gt;" style="ellipse;whiteSpace=wrap;html=1;aspect=fixed;sketch=1;curveFitting=1;jiggle=2;" vertex="1" parent="wIaHaO2FN9Urou3l482N-1">
          <mxGeometry x="25" y="174" width="29" height="29" as="geometry" />
        </mxCell>
        <mxCell id="Ygx26Ma0uc5o6EwyQJRm-46" value="&lt;font style=&quot;font-size: 14px;&quot;&gt;3&lt;/font&gt;" style="ellipse;whiteSpace=wrap;html=1;aspect=fixed;sketch=1;curveFitting=1;jiggle=2;" vertex="1" parent="wIaHaO2FN9Urou3l482N-1">
          <mxGeometry x="25" y="294" width="29" height="29" as="geometry" />
        </mxCell>
        <mxCell id="Ygx26Ma0uc5o6EwyQJRm-47" value="&lt;font style=&quot;font-size: 14px;&quot;&gt;4&lt;/font&gt;" style="ellipse;whiteSpace=wrap;html=1;aspect=fixed;sketch=1;curveFitting=1;jiggle=2;" vertex="1" parent="wIaHaO2FN9Urou3l482N-1">
          <mxGeometry x="25" y="414" width="29" height="29" as="geometry" />
        </mxCell>
        <mxCell id="Ygx26Ma0uc5o6EwyQJRm-48" value="&lt;font style=&quot;font-size: 14px;&quot;&gt;5&lt;/font&gt;" style="ellipse;whiteSpace=wrap;html=1;aspect=fixed;sketch=1;curveFitting=1;jiggle=2;" vertex="1" parent="wIaHaO2FN9Urou3l482N-1">
          <mxGeometry x="25" y="537" width="29" height="29" as="geometry" />
        </mxCell>
        <mxCell id="Ygx26Ma0uc5o6EwyQJRm-49" value="&lt;font style=&quot;font-size: 14px;&quot;&gt;6&lt;/font&gt;" style="ellipse;whiteSpace=wrap;html=1;aspect=fixed;sketch=1;curveFitting=1;jiggle=2;" vertex="1" parent="wIaHaO2FN9Urou3l482N-1">
          <mxGeometry x="25" y="656" width="29" height="29" as="geometry" />
        </mxCell>
        <mxCell id="wIaHaO2FN9Urou3l482N-34" value="SØVN skab tv. (205 + 208)" style="swimlane;whiteSpace=wrap;html=1;hachureGap=4;fontFamily=Verdana;fontSize=18;swimlaneFillColor=#E6E6E6;startSize=35;rounded=0;labelBackgroundColor=none;fillStyle=solid;fillColor=#AB61A1;fontColor=#FFFFFF;shadow=1;fontStyle=0;glass=0;" parent="1" vertex="1">
          <mxGeometry x="80" y="1306" width="660" height="900" as="geometry" />
        </mxCell>
        <mxCell id="wIaHaO2FN9Urou3l482N-35" value="" style="shape=trapezoid;perimeter=trapezoidPerimeter;whiteSpace=wrap;html=1;fixedSize=1;rounded=1;size=22.5;arcSize=17;rotation=-180;labelBackgroundColor=none;shadow=0;fillStyle=solid;allowArrows=1;snapToPoint=0;strokeWidth=2;perimeterSpacing=0;labelBorderColor=none;fillColor=#EDC8DD;fontSize=18;fontFamily=Verdana;sketch=1;curveFitting=1;jiggle=2;" parent="wIaHaO2FN9Urou3l482N-34" vertex="1">
          <mxGeometry x="30" y="90" width="600" height="100" as="geometry" />
        </mxCell>
        <mxCell id="wIaHaO2FN9Urou3l482N-37" value="" style="shape=trapezoid;perimeter=trapezoidPerimeter;whiteSpace=wrap;html=1;fixedSize=1;rounded=1;size=22.5;arcSize=17;rotation=-180;labelBackgroundColor=none;shadow=0;fillStyle=solid;allowArrows=1;snapToPoint=0;strokeWidth=2;perimeterSpacing=0;labelBorderColor=none;fillColor=#EDC8DD;fontSize=18;fontFamily=Verdana;sketch=1;curveFitting=1;jiggle=2;" parent="wIaHaO2FN9Urou3l482N-34" vertex="1">
          <mxGeometry x="30" y="210" width="600" height="100" as="geometry" />
        </mxCell>
        <mxCell id="wIaHaO2FN9Urou3l482N-38" value="" style="shape=trapezoid;perimeter=trapezoidPerimeter;whiteSpace=wrap;html=1;fixedSize=1;rounded=1;size=22.5;arcSize=17;rotation=-180;labelBackgroundColor=none;shadow=0;fillStyle=solid;allowArrows=1;snapToPoint=0;strokeWidth=2;perimeterSpacing=0;labelBorderColor=none;fillColor=#EDC8DD;fontSize=18;fontFamily=Verdana;sketch=1;curveFitting=1;jiggle=2;" parent="wIaHaO2FN9Urou3l482N-34" vertex="1">
          <mxGeometry x="30" y="330" width="600" height="100" as="geometry" />
        </mxCell>
        <mxCell id="wIaHaO2FN9Urou3l482N-39" value="" style="shape=trapezoid;perimeter=trapezoidPerimeter;whiteSpace=wrap;html=1;fixedSize=1;rounded=1;size=22.5;arcSize=17;rotation=-180;labelBackgroundColor=none;shadow=0;fillStyle=solid;allowArrows=1;snapToPoint=0;strokeWidth=2;perimeterSpacing=0;labelBorderColor=none;fillColor=#EDC8DD;fontSize=18;fontFamily=Verdana;sketch=1;curveFitting=1;jiggle=2;" parent="wIaHaO2FN9Urou3l482N-34" vertex="1">
          <mxGeometry x="30" y="450" width="600" height="100" as="geometry" />
        </mxCell>
        <mxCell id="wIaHaO2FN9Urou3l482N-40" value="" style="shape=trapezoid;perimeter=trapezoidPerimeter;whiteSpace=wrap;html=1;fixedSize=1;rounded=1;size=22.5;arcSize=17;rotation=-180;labelBackgroundColor=none;shadow=0;fillStyle=solid;allowArrows=1;snapToPoint=0;strokeWidth=2;perimeterSpacing=0;labelBorderColor=none;fillColor=#EDC8DD;fontSize=18;fontFamily=Verdana;sketch=1;curveFitting=1;jiggle=2;" parent="wIaHaO2FN9Urou3l482N-34" vertex="1">
          <mxGeometry x="30" y="570" width="600" height="100" as="geometry" />
        </mxCell>
        <mxCell id="wIaHaO2FN9Urou3l482N-41" value="" style="shape=trapezoid;perimeter=trapezoidPerimeter;whiteSpace=wrap;html=1;fixedSize=1;rounded=1;size=22.5;arcSize=17;rotation=-180;labelBackgroundColor=none;shadow=0;fillStyle=solid;allowArrows=1;snapToPoint=0;strokeWidth=2;perimeterSpacing=0;labelBorderColor=none;fillColor=#EDC8DD;fontSize=18;fontFamily=Verdana;sketch=1;curveFitting=1;jiggle=2;" parent="wIaHaO2FN9Urou3l482N-34" vertex="1">
          <mxGeometry x="30" y="690" width="600" height="100" as="geometry" />
        </mxCell>
        <mxCell id="wIaHaO2FN9Urou3l482N-48" value="Tape&lt;br style=&quot;font-size: 18px;&quot;&gt;2,5cm" style="rounded=1;whiteSpace=wrap;html=1;hachureGap=4;fontFamily=Verdana;fontSize=18;strokeWidth=1;direction=west;rotation=0;spacingRight=2;spacingLeft=2;sketch=1;curveFitting=1;jiggle=2;" parent="wIaHaO2FN9Urou3l482N-34" vertex="1">
          <mxGeometry x="73" y="460" width="70" height="80" as="geometry" />
        </mxCell>
        <mxCell id="wIaHaO2FN9Urou3l482N-58" value="Forbinding Singlefix&lt;br&gt;1m" style="rounded=1;whiteSpace=wrap;html=1;hachureGap=4;fontFamily=Verdana;fontSize=18;strokeWidth=1;direction=west;rotation=0;spacingRight=2;spacingLeft=2;sketch=1;curveFitting=1;jiggle=2;" parent="wIaHaO2FN9Urou3l482N-34" vertex="1">
          <mxGeometry x="222" y="580" width="130" height="80" as="geometry" />
        </mxCell>
        <mxCell id="wIaHaO2FN9Urou3l482N-60" value="Barber-skraber" style="rounded=1;whiteSpace=wrap;html=1;hachureGap=4;fontFamily=Verdana;fontSize=18;strokeWidth=1;direction=west;rotation=0;spacingRight=2;spacingLeft=2;sketch=1;curveFitting=1;jiggle=2;" parent="wIaHaO2FN9Urou3l482N-34" vertex="1">
          <mxGeometry x="504" y="460" width="95" height="80" as="geometry" />
        </mxCell>
        <mxCell id="wIaHaO2FN9Urou3l482N-62" value="Mollelast&lt;br style=&quot;font-size: 18px;&quot;&gt;4cmX4m" style="rounded=1;whiteSpace=wrap;html=1;hachureGap=4;fontFamily=Verdana;fontSize=18;strokeWidth=1;direction=west;rotation=0;spacingRight=2;spacingLeft=2;sketch=1;curveFitting=1;jiggle=2;" parent="wIaHaO2FN9Urou3l482N-34" vertex="1">
          <mxGeometry x="362" y="580" width="99" height="80" as="geometry" />
        </mxCell>
        <mxCell id="wIaHaO2FN9Urou3l482N-81" value="Elektrode&lt;br&gt;DENIF skum overf." style="rounded=1;whiteSpace=wrap;html=1;hachureGap=4;fontFamily=Verdana;fontSize=18;strokeWidth=1;direction=west;rotation=0;spacingRight=2;spacingLeft=2;sketch=1;curveFitting=1;jiggle=2;" parent="wIaHaO2FN9Urou3l482N-34" vertex="1">
          <mxGeometry x="199" y="700" width="119" height="80" as="geometry" />
        </mxCell>
        <mxCell id="wIaHaO2FN9Urou3l482N-51" value="Sensor &lt;br&gt;nasal T3 NOX&amp;nbsp;" style="rounded=1;whiteSpace=wrap;html=1;hachureGap=4;fontFamily=Verdana;fontSize=18;strokeWidth=1;direction=west;rotation=0;spacingRight=2;spacingLeft=2;sketch=1;curveFitting=1;jiggle=2;" parent="wIaHaO2FN9Urou3l482N-34" vertex="1">
          <mxGeometry x="82" y="100" width="140" height="80" as="geometry" />
        </mxCell>
        <mxCell id="wIaHaO2FN9Urou3l482N-85" value="Tape&lt;br&gt;stof/ark" style="rounded=1;whiteSpace=wrap;html=1;hachureGap=4;fontFamily=Verdana;fontSize=18;strokeWidth=1;direction=west;rotation=0;spacingRight=2;spacingLeft=2;sketch=1;curveFitting=1;jiggle=2;" parent="wIaHaO2FN9Urou3l482N-34" vertex="1">
          <mxGeometry x="153" y="460" width="90" height="80" as="geometry" />
        </mxCell>
        <mxCell id="wIaHaO2FN9Urou3l482N-82" value="Elektrode &lt;br style=&quot;font-size: 18px;&quot;&gt;m/tryk &lt;br&gt;Ø38mm" style="rounded=1;whiteSpace=wrap;html=1;hachureGap=4;fontFamily=Verdana;fontSize=18;strokeWidth=1;direction=west;rotation=0;spacingRight=2;spacingLeft=2;sketch=1;curveFitting=1;jiggle=2;" parent="wIaHaO2FN9Urou3l482N-34" vertex="1">
          <mxGeometry x="64" y="700" width="121" height="80" as="geometry" />
        </mxCell>
        <mxCell id="wIaHaO2FN9Urou3l482N-76" value="Elektrode&lt;br&gt;cup EEG&lt;br&gt;100cm 10stk" style="rounded=1;whiteSpace=wrap;html=1;hachureGap=4;fontFamily=Verdana;fontSize=18;strokeWidth=1;direction=west;rotation=0;spacingRight=2;spacingLeft=2;sketch=1;curveFitting=1;jiggle=2;" parent="wIaHaO2FN9Urou3l482N-34" vertex="1">
          <mxGeometry x="328" y="700" width="140" height="80" as="geometry" />
        </mxCell>
        <mxCell id="wIaHaO2FN9Urou3l482N-74" value="Elektrode&lt;br&gt;WhiteS&lt;br style=&quot;font-size: 18px;&quot;&gt;38x19mm" style="rounded=1;whiteSpace=wrap;html=1;hachureGap=4;fontFamily=Verdana;fontSize=18;strokeWidth=1;direction=west;rotation=0;spacingRight=2;spacingLeft=2;sketch=1;curveFitting=1;jiggle=2;" parent="wIaHaO2FN9Urou3l482N-34" vertex="1">
          <mxGeometry x="479" y="700" width="120" height="80" as="geometry" />
        </mxCell>
        <mxCell id="Ygx26Ma0uc5o6EwyQJRm-6" value="Gazekompres&lt;br style=&quot;font-size: 18px;&quot;&gt;7,5x7,5cm" style="rounded=1;whiteSpace=wrap;html=1;hachureGap=4;fontFamily=Verdana;fontSize=18;strokeWidth=1;direction=west;rotation=0;spacingRight=2;spacingLeft=2;sketch=1;curveFitting=1;jiggle=2;" vertex="1" parent="wIaHaO2FN9Urou3l482N-34">
          <mxGeometry x="64" y="580" width="148" height="80" as="geometry" />
        </mxCell>
        <mxCell id="Ygx26Ma0uc5o6EwyQJRm-7" value="Mollelast&lt;br style=&quot;font-size: 18px;&quot;&gt;6cmX20m" style="rounded=1;whiteSpace=wrap;html=1;hachureGap=4;fontFamily=Verdana;fontSize=18;strokeWidth=1;direction=west;rotation=0;spacingRight=2;spacingLeft=2;sketch=1;curveFitting=1;jiggle=2;" vertex="1" parent="wIaHaO2FN9Urou3l482N-34">
          <mxGeometry x="474" y="580" width="111" height="80" as="geometry" />
        </mxCell>
        <mxCell id="wIaHaO2FN9Urou3l482N-36" value="Klud Grøn" style="rounded=1;whiteSpace=wrap;html=1;hachureGap=4;fontFamily=Verdana;fontSize=18;strokeWidth=1;direction=west;rotation=0;sketch=1;curveFitting=1;jiggle=2;" parent="wIaHaO2FN9Urou3l482N-34" vertex="1">
          <mxGeometry x="73" y="220" width="60" height="80" as="geometry" />
        </mxCell>
        <mxCell id="wIaHaO2FN9Urou3l482N-42" value="Klud Blå" style="rounded=1;whiteSpace=wrap;html=1;hachureGap=4;fontFamily=Verdana;fontSize=18;strokeWidth=1;direction=west;rotation=0;sketch=1;curveFitting=1;jiggle=2;" parent="wIaHaO2FN9Urou3l482N-34" vertex="1">
          <mxGeometry x="143" y="220" width="60" height="80" as="geometry" />
        </mxCell>
        <mxCell id="wIaHaO2FN9Urou3l482N-43" value="Serviet&lt;br style=&quot;font-size: 18px;&quot;&gt;eth./klor" style="rounded=1;whiteSpace=wrap;html=1;hachureGap=4;fontFamily=Verdana;fontSize=18;strokeWidth=1;direction=west;rotation=0;sketch=1;curveFitting=1;jiggle=2;" parent="wIaHaO2FN9Urou3l482N-34" vertex="1">
          <mxGeometry x="223" y="220" width="100" height="80" as="geometry" />
        </mxCell>
        <mxCell id="wIaHaO2FN9Urou3l482N-44" value="Opkast-pose" style="rounded=1;whiteSpace=wrap;html=1;hachureGap=4;fontFamily=Verdana;fontSize=18;strokeWidth=1;direction=west;rotation=0;sketch=1;curveFitting=1;jiggle=2;" parent="wIaHaO2FN9Urou3l482N-34" vertex="1">
          <mxGeometry x="373" y="220" width="80" height="80" as="geometry" />
        </mxCell>
        <mxCell id="wIaHaO2FN9Urou3l482N-45" value="Urin-kolbe" style="rounded=1;whiteSpace=wrap;html=1;hachureGap=4;fontFamily=Verdana;fontSize=18;strokeWidth=1;direction=west;rotation=0;sketch=1;curveFitting=1;jiggle=2;" parent="wIaHaO2FN9Urou3l482N-34" vertex="1">
          <mxGeometry x="463" y="220" width="80" height="80" as="geometry" />
        </mxCell>
        <mxCell id="Ygx26Ma0uc5o6EwyQJRm-8" value="Tunge-spatel" style="rounded=1;whiteSpace=wrap;html=1;hachureGap=4;fontFamily=Verdana;fontSize=18;strokeWidth=1;direction=west;rotation=-90;spacingRight=2;spacingLeft=2;sketch=1;curveFitting=1;jiggle=2;" vertex="1" parent="wIaHaO2FN9Urou3l482N-34">
          <mxGeometry x="250" y="470" width="80" height="60" as="geometry" />
        </mxCell>
        <mxCell id="Ygx26Ma0uc5o6EwyQJRm-9" value="Vatpind" style="rounded=1;whiteSpace=wrap;html=1;hachureGap=4;fontFamily=Verdana;fontSize=18;strokeWidth=1;direction=west;rotation=-90;spacingRight=2;spacingLeft=2;sketch=1;curveFitting=1;jiggle=2;" vertex="1" parent="wIaHaO2FN9Urou3l482N-34">
          <mxGeometry x="324" y="475" width="80" height="50" as="geometry" />
        </mxCell>
        <mxCell id="Ygx26Ma0uc5o6EwyQJRm-10" value="Øre-propper" style="rounded=1;whiteSpace=wrap;html=1;hachureGap=4;fontFamily=Verdana;fontSize=18;strokeWidth=1;direction=west;rotation=0;spacingRight=2;spacingLeft=2;sketch=1;curveFitting=1;jiggle=2;" vertex="1" parent="wIaHaO2FN9Urou3l482N-34">
          <mxGeometry x="401" y="460" width="90" height="80" as="geometry" />
        </mxCell>
        <mxCell id="hg8EG3NnJH5CYO38RCTZ-10" value="Pasta&lt;br style=&quot;font-size: 18px;&quot;&gt;NuPrep" style="rounded=1;whiteSpace=wrap;html=1;hachureGap=4;fontFamily=Verdana;fontSize=18;strokeWidth=1;direction=west;rotation=0;spacingRight=2;spacingLeft=2;sketch=1;curveFitting=1;jiggle=2;" parent="wIaHaO2FN9Urou3l482N-34" vertex="1">
          <mxGeometry x="79" y="340" width="120" height="80" as="geometry" />
        </mxCell>
        <mxCell id="wIaHaO2FN9Urou3l482N-63" value="Gel, SAC2 Low Imp" style="rounded=1;whiteSpace=wrap;html=1;hachureGap=4;fontFamily=Verdana;fontSize=18;strokeWidth=1;direction=west;rotation=0;spacingRight=2;spacingLeft=2;sketch=1;curveFitting=1;jiggle=2;" parent="wIaHaO2FN9Urou3l482N-34" vertex="1">
          <mxGeometry x="216" y="340" width="130" height="80" as="geometry" />
        </mxCell>
        <mxCell id="Ygx26Ma0uc5o6EwyQJRm-50" value="&lt;font style=&quot;font-size: 14px;&quot;&gt;1&lt;/font&gt;" style="ellipse;whiteSpace=wrap;html=1;aspect=fixed;sketch=1;curveFitting=1;jiggle=2;" vertex="1" parent="wIaHaO2FN9Urou3l482N-34">
          <mxGeometry x="19" y="77" width="29" height="29" as="geometry" />
        </mxCell>
        <mxCell id="Ygx26Ma0uc5o6EwyQJRm-51" value="&lt;font style=&quot;font-size: 14px;&quot;&gt;2&lt;/font&gt;" style="ellipse;whiteSpace=wrap;html=1;aspect=fixed;sketch=1;curveFitting=1;jiggle=2;" vertex="1" parent="wIaHaO2FN9Urou3l482N-34">
          <mxGeometry x="19" y="195" width="29" height="29" as="geometry" />
        </mxCell>
        <mxCell id="Ygx26Ma0uc5o6EwyQJRm-52" value="&lt;font style=&quot;font-size: 14px;&quot;&gt;3&lt;/font&gt;" style="ellipse;whiteSpace=wrap;html=1;aspect=fixed;sketch=1;curveFitting=1;jiggle=2;" vertex="1" parent="wIaHaO2FN9Urou3l482N-34">
          <mxGeometry x="19" y="315" width="29" height="29" as="geometry" />
        </mxCell>
        <mxCell id="Ygx26Ma0uc5o6EwyQJRm-53" value="&lt;font style=&quot;font-size: 14px;&quot;&gt;4&lt;/font&gt;" style="ellipse;whiteSpace=wrap;html=1;aspect=fixed;sketch=1;curveFitting=1;jiggle=2;" vertex="1" parent="wIaHaO2FN9Urou3l482N-34">
          <mxGeometry x="19" y="435" width="29" height="29" as="geometry" />
        </mxCell>
        <mxCell id="Ygx26Ma0uc5o6EwyQJRm-54" value="&lt;font style=&quot;font-size: 14px;&quot;&gt;5&lt;/font&gt;" style="ellipse;whiteSpace=wrap;html=1;aspect=fixed;sketch=1;curveFitting=1;jiggle=2;" vertex="1" parent="wIaHaO2FN9Urou3l482N-34">
          <mxGeometry x="19" y="558" width="29" height="29" as="geometry" />
        </mxCell>
        <mxCell id="Ygx26Ma0uc5o6EwyQJRm-55" value="&lt;font style=&quot;font-size: 14px;&quot;&gt;6&lt;/font&gt;" style="ellipse;whiteSpace=wrap;html=1;aspect=fixed;sketch=1;curveFitting=1;jiggle=2;" vertex="1" parent="wIaHaO2FN9Urou3l482N-34">
          <mxGeometry x="19" y="677" width="29" height="29" as="geometry" />
        </mxCell>
        <mxCell id="wIaHaO2FN9Urou3l482N-119" value="DEPOT RENT" style="swimlane;whiteSpace=wrap;html=1;hachureGap=4;fontFamily=Verdana;fontSize=18;swimlaneFillColor=#E6E6E6;startSize=35;rounded=0;labelBackgroundColor=none;fillStyle=solid;fillColor=#A7AB6A;fontColor=#FFFFFF;shadow=1;fontStyle=0;glass=0;" parent="1" vertex="1">
          <mxGeometry x="80" y="3837" width="740" height="1090" as="geometry" />
        </mxCell>
        <mxCell id="wIaHaO2FN9Urou3l482N-146" value="" style="shape=trapezoid;perimeter=trapezoidPerimeter;whiteSpace=wrap;html=1;fixedSize=1;rounded=1;size=22.5;arcSize=17;rotation=-180;labelBackgroundColor=none;shadow=0;fillStyle=solid;allowArrows=1;snapToPoint=0;strokeWidth=2;perimeterSpacing=0;labelBorderColor=none;fillColor=#FFFFCC;fontSize=18;fontFamily=Verdana;sketch=1;curveFitting=1;jiggle=2;" parent="wIaHaO2FN9Urou3l482N-119" vertex="1">
          <mxGeometry x="380" y="90" width="350" height="60" as="geometry" />
        </mxCell>
        <mxCell id="wIaHaO2FN9Urou3l482N-147" value="" style="shape=trapezoid;perimeter=trapezoidPerimeter;whiteSpace=wrap;html=1;fixedSize=1;rounded=1;size=22.5;arcSize=17;rotation=-180;labelBackgroundColor=none;shadow=0;fillStyle=solid;allowArrows=1;snapToPoint=0;strokeWidth=2;perimeterSpacing=0;labelBorderColor=none;fillColor=#FFFFCC;fontSize=18;fontFamily=Verdana;sketch=1;curveFitting=1;jiggle=2;" parent="wIaHaO2FN9Urou3l482N-119" vertex="1">
          <mxGeometry x="380" y="170" width="350" height="60" as="geometry" />
        </mxCell>
        <mxCell id="wIaHaO2FN9Urou3l482N-148" value="" style="shape=trapezoid;perimeter=trapezoidPerimeter;whiteSpace=wrap;html=1;fixedSize=1;rounded=1;size=22.5;arcSize=17;rotation=-180;labelBackgroundColor=none;shadow=0;fillStyle=solid;allowArrows=1;snapToPoint=0;strokeWidth=2;perimeterSpacing=0;labelBorderColor=none;fillColor=#FFFFCC;fontSize=18;fontFamily=Verdana;sketch=1;curveFitting=1;jiggle=2;" parent="wIaHaO2FN9Urou3l482N-119" vertex="1">
          <mxGeometry x="380" y="250" width="350" height="60" as="geometry" />
        </mxCell>
        <mxCell id="wIaHaO2FN9Urou3l482N-163" value="" style="shape=trapezoid;perimeter=trapezoidPerimeter;whiteSpace=wrap;html=1;fixedSize=1;rounded=1;size=22.5;arcSize=17;rotation=-180;labelBackgroundColor=none;shadow=0;fillStyle=solid;allowArrows=1;snapToPoint=0;strokeWidth=2;perimeterSpacing=0;labelBorderColor=none;fillColor=#FFFFCC;fontSize=18;fontFamily=Verdana;sketch=1;curveFitting=1;jiggle=2;" parent="wIaHaO2FN9Urou3l482N-119" vertex="1">
          <mxGeometry x="20" y="90" width="350" height="60" as="geometry" />
        </mxCell>
        <mxCell id="wIaHaO2FN9Urou3l482N-164" value="" style="shape=trapezoid;perimeter=trapezoidPerimeter;whiteSpace=wrap;html=1;fixedSize=1;rounded=1;size=22.5;arcSize=17;rotation=-180;labelBackgroundColor=none;shadow=0;fillStyle=solid;allowArrows=1;snapToPoint=0;strokeWidth=2;perimeterSpacing=0;labelBorderColor=none;fillColor=#FFFFCC;fontSize=18;fontFamily=Verdana;sketch=1;curveFitting=1;jiggle=2;" parent="wIaHaO2FN9Urou3l482N-119" vertex="1">
          <mxGeometry x="20" y="170" width="350" height="60" as="geometry" />
        </mxCell>
        <mxCell id="wIaHaO2FN9Urou3l482N-165" value="" style="shape=trapezoid;perimeter=trapezoidPerimeter;whiteSpace=wrap;html=1;fixedSize=1;rounded=1;size=22.5;arcSize=17;rotation=-180;labelBackgroundColor=none;shadow=0;fillStyle=solid;allowArrows=1;snapToPoint=0;strokeWidth=2;perimeterSpacing=0;labelBorderColor=none;fillColor=#FFFFCC;fontSize=18;fontFamily=Verdana;sketch=1;curveFitting=1;jiggle=2;" parent="wIaHaO2FN9Urou3l482N-119" vertex="1">
          <mxGeometry x="20" y="250" width="350" height="60" as="geometry" />
        </mxCell>
        <mxCell id="wIaHaO2FN9Urou3l482N-184" value="" style="shape=trapezoid;perimeter=trapezoidPerimeter;whiteSpace=wrap;html=1;fixedSize=1;rounded=1;size=22.5;arcSize=17;rotation=-180;labelBackgroundColor=none;shadow=0;fillStyle=solid;allowArrows=1;snapToPoint=0;strokeWidth=2;perimeterSpacing=0;labelBorderColor=none;fillColor=#FFFFCC;fontSize=18;fontFamily=Verdana;sketch=1;curveFitting=1;jiggle=2;" parent="wIaHaO2FN9Urou3l482N-119" vertex="1">
          <mxGeometry x="380" y="330" width="350" height="60" as="geometry" />
        </mxCell>
        <mxCell id="wIaHaO2FN9Urou3l482N-185" value="" style="shape=trapezoid;perimeter=trapezoidPerimeter;whiteSpace=wrap;html=1;fixedSize=1;rounded=1;size=22.5;arcSize=17;rotation=-180;labelBackgroundColor=none;shadow=0;fillStyle=solid;allowArrows=1;snapToPoint=0;strokeWidth=2;perimeterSpacing=0;labelBorderColor=none;fillColor=#FFFFCC;fontSize=18;fontFamily=Verdana;sketch=1;curveFitting=1;jiggle=2;" parent="wIaHaO2FN9Urou3l482N-119" vertex="1">
          <mxGeometry x="380" y="410" width="350" height="60" as="geometry" />
        </mxCell>
        <mxCell id="wIaHaO2FN9Urou3l482N-186" value="" style="shape=trapezoid;perimeter=trapezoidPerimeter;whiteSpace=wrap;html=1;fixedSize=1;rounded=1;size=22.5;arcSize=17;rotation=-180;labelBackgroundColor=none;shadow=0;fillStyle=solid;allowArrows=1;snapToPoint=0;strokeWidth=2;perimeterSpacing=0;labelBorderColor=none;fillColor=#FFFFCC;fontSize=18;fontFamily=Verdana;sketch=1;curveFitting=1;jiggle=2;" parent="wIaHaO2FN9Urou3l482N-119" vertex="1">
          <mxGeometry x="380" y="490" width="350" height="60" as="geometry" />
        </mxCell>
        <mxCell id="wIaHaO2FN9Urou3l482N-187" value="" style="shape=trapezoid;perimeter=trapezoidPerimeter;whiteSpace=wrap;html=1;fixedSize=1;rounded=1;size=22.5;arcSize=17;rotation=-180;labelBackgroundColor=none;shadow=0;fillStyle=solid;allowArrows=1;snapToPoint=0;strokeWidth=2;perimeterSpacing=0;labelBorderColor=none;fillColor=#FFFFCC;fontSize=18;fontFamily=Verdana;sketch=1;curveFitting=1;jiggle=2;" parent="wIaHaO2FN9Urou3l482N-119" vertex="1">
          <mxGeometry x="20" y="330" width="350" height="60" as="geometry" />
        </mxCell>
        <mxCell id="wIaHaO2FN9Urou3l482N-188" value="" style="shape=trapezoid;perimeter=trapezoidPerimeter;whiteSpace=wrap;html=1;fixedSize=1;rounded=1;size=22.5;arcSize=17;rotation=-180;labelBackgroundColor=none;shadow=0;fillStyle=solid;allowArrows=1;snapToPoint=0;strokeWidth=2;perimeterSpacing=0;labelBorderColor=none;fillColor=#FFFFCC;fontSize=18;fontFamily=Verdana;sketch=1;curveFitting=1;jiggle=2;" parent="wIaHaO2FN9Urou3l482N-119" vertex="1">
          <mxGeometry x="20" y="410" width="350" height="60" as="geometry" />
        </mxCell>
        <mxCell id="wIaHaO2FN9Urou3l482N-189" value="" style="shape=trapezoid;perimeter=trapezoidPerimeter;whiteSpace=wrap;html=1;fixedSize=1;rounded=1;size=22.5;arcSize=17;rotation=-180;labelBackgroundColor=none;shadow=0;fillStyle=solid;allowArrows=1;snapToPoint=0;strokeWidth=2;perimeterSpacing=0;labelBorderColor=none;fillColor=#FFFFCC;fontSize=18;fontFamily=Verdana;sketch=1;curveFitting=1;jiggle=2;" parent="wIaHaO2FN9Urou3l482N-119" vertex="1">
          <mxGeometry x="20" y="490" width="350" height="60" as="geometry" />
        </mxCell>
        <mxCell id="wIaHaO2FN9Urou3l482N-190" value="" style="shape=trapezoid;perimeter=trapezoidPerimeter;whiteSpace=wrap;html=1;fixedSize=1;rounded=1;size=22.5;arcSize=17;rotation=-180;labelBackgroundColor=none;shadow=0;fillStyle=solid;allowArrows=1;snapToPoint=0;strokeWidth=2;perimeterSpacing=0;labelBorderColor=none;fillColor=#FFFFCC;fontSize=18;fontFamily=Verdana;sketch=1;curveFitting=1;jiggle=2;" parent="wIaHaO2FN9Urou3l482N-119" vertex="1">
          <mxGeometry x="380" y="570" width="350" height="60" as="geometry" />
        </mxCell>
        <mxCell id="wIaHaO2FN9Urou3l482N-191" value="" style="shape=trapezoid;perimeter=trapezoidPerimeter;whiteSpace=wrap;html=1;fixedSize=1;rounded=1;size=22.5;arcSize=17;rotation=-180;labelBackgroundColor=none;shadow=0;fillStyle=solid;allowArrows=1;snapToPoint=0;strokeWidth=2;perimeterSpacing=0;labelBorderColor=none;fillColor=#FFFFCC;fontSize=18;fontFamily=Verdana;sketch=1;curveFitting=1;jiggle=2;" parent="wIaHaO2FN9Urou3l482N-119" vertex="1">
          <mxGeometry x="380" y="650" width="350" height="60" as="geometry" />
        </mxCell>
        <mxCell id="wIaHaO2FN9Urou3l482N-192" value="" style="shape=trapezoid;perimeter=trapezoidPerimeter;whiteSpace=wrap;html=1;fixedSize=1;rounded=1;size=22.5;arcSize=17;rotation=-180;labelBackgroundColor=none;shadow=0;fillStyle=solid;allowArrows=1;snapToPoint=0;strokeWidth=2;perimeterSpacing=0;labelBorderColor=none;fillColor=#FFFFCC;fontSize=18;fontFamily=Verdana;sketch=1;curveFitting=1;jiggle=2;" parent="wIaHaO2FN9Urou3l482N-119" vertex="1">
          <mxGeometry x="380" y="730" width="350" height="60" as="geometry" />
        </mxCell>
        <mxCell id="wIaHaO2FN9Urou3l482N-193" value="" style="shape=trapezoid;perimeter=trapezoidPerimeter;whiteSpace=wrap;html=1;fixedSize=1;rounded=1;size=22.5;arcSize=17;rotation=-180;labelBackgroundColor=none;shadow=0;fillStyle=solid;allowArrows=1;snapToPoint=0;strokeWidth=2;perimeterSpacing=0;labelBorderColor=none;fillColor=#FFFFCC;fontSize=18;fontFamily=Verdana;sketch=1;curveFitting=1;jiggle=2;" parent="wIaHaO2FN9Urou3l482N-119" vertex="1">
          <mxGeometry x="20" y="570" width="350" height="60" as="geometry" />
        </mxCell>
        <mxCell id="wIaHaO2FN9Urou3l482N-194" value="" style="shape=trapezoid;perimeter=trapezoidPerimeter;whiteSpace=wrap;html=1;fixedSize=1;rounded=1;size=22.5;arcSize=17;rotation=-180;labelBackgroundColor=none;shadow=0;fillStyle=solid;allowArrows=1;snapToPoint=0;strokeWidth=2;perimeterSpacing=0;labelBorderColor=none;fillColor=#FFFFCC;fontSize=18;fontFamily=Verdana;sketch=1;curveFitting=1;jiggle=2;" parent="wIaHaO2FN9Urou3l482N-119" vertex="1">
          <mxGeometry x="20" y="650" width="350" height="60" as="geometry" />
        </mxCell>
        <mxCell id="wIaHaO2FN9Urou3l482N-195" value="" style="shape=trapezoid;perimeter=trapezoidPerimeter;whiteSpace=wrap;html=1;fixedSize=1;rounded=1;size=22.5;arcSize=17;rotation=-180;labelBackgroundColor=none;shadow=0;fillStyle=solid;allowArrows=1;snapToPoint=0;strokeWidth=2;perimeterSpacing=0;labelBorderColor=none;fillColor=#FFFFCC;fontSize=18;fontFamily=Verdana;sketch=1;curveFitting=1;jiggle=2;" parent="wIaHaO2FN9Urou3l482N-119" vertex="1">
          <mxGeometry x="20" y="730" width="350" height="60" as="geometry" />
        </mxCell>
        <mxCell id="wIaHaO2FN9Urou3l482N-196" value="" style="shape=trapezoid;perimeter=trapezoidPerimeter;whiteSpace=wrap;html=1;fixedSize=1;rounded=1;size=22.5;arcSize=17;rotation=-180;labelBackgroundColor=none;shadow=0;fillStyle=solid;allowArrows=1;snapToPoint=0;strokeWidth=2;perimeterSpacing=0;labelBorderColor=none;fillColor=#FFFFCC;fontSize=18;fontFamily=Verdana;sketch=1;curveFitting=1;jiggle=2;" parent="wIaHaO2FN9Urou3l482N-119" vertex="1">
          <mxGeometry x="380" y="810" width="350" height="60" as="geometry" />
        </mxCell>
        <mxCell id="wIaHaO2FN9Urou3l482N-197" value="" style="shape=trapezoid;perimeter=trapezoidPerimeter;whiteSpace=wrap;html=1;fixedSize=1;rounded=1;size=22.5;arcSize=17;rotation=-180;labelBackgroundColor=none;shadow=0;fillStyle=solid;allowArrows=1;snapToPoint=0;strokeWidth=2;perimeterSpacing=0;labelBorderColor=none;fillColor=#FFFFCC;fontSize=18;fontFamily=Verdana;sketch=1;curveFitting=1;jiggle=2;" parent="wIaHaO2FN9Urou3l482N-119" vertex="1">
          <mxGeometry x="380" y="890" width="350" height="60" as="geometry" />
        </mxCell>
        <mxCell id="wIaHaO2FN9Urou3l482N-198" value="" style="shape=trapezoid;perimeter=trapezoidPerimeter;whiteSpace=wrap;html=1;fixedSize=1;rounded=1;size=22.5;arcSize=17;rotation=-180;labelBackgroundColor=none;shadow=0;fillStyle=solid;allowArrows=1;snapToPoint=0;strokeWidth=2;perimeterSpacing=0;labelBorderColor=none;fillColor=#FFFFCC;fontSize=18;fontFamily=Verdana;sketch=1;curveFitting=1;jiggle=2;" parent="wIaHaO2FN9Urou3l482N-119" vertex="1">
          <mxGeometry x="380" y="970" width="350" height="60" as="geometry" />
        </mxCell>
        <mxCell id="wIaHaO2FN9Urou3l482N-199" value="" style="shape=trapezoid;perimeter=trapezoidPerimeter;whiteSpace=wrap;html=1;fixedSize=1;rounded=1;size=22.5;arcSize=17;rotation=-180;labelBackgroundColor=none;shadow=0;fillStyle=solid;allowArrows=1;snapToPoint=0;strokeWidth=2;perimeterSpacing=0;labelBorderColor=none;fillColor=#FFFFCC;fontSize=18;fontFamily=Verdana;sketch=1;curveFitting=1;jiggle=2;" parent="wIaHaO2FN9Urou3l482N-119" vertex="1">
          <mxGeometry x="20" y="810" width="350" height="60" as="geometry" />
        </mxCell>
        <mxCell id="wIaHaO2FN9Urou3l482N-200" value="" style="shape=trapezoid;perimeter=trapezoidPerimeter;whiteSpace=wrap;html=1;fixedSize=1;rounded=1;size=22.5;arcSize=17;rotation=-180;labelBackgroundColor=none;shadow=0;fillStyle=solid;allowArrows=1;snapToPoint=0;strokeWidth=2;perimeterSpacing=0;labelBorderColor=none;fillColor=#FFFFCC;fontSize=18;fontFamily=Verdana;sketch=1;curveFitting=1;jiggle=2;" parent="wIaHaO2FN9Urou3l482N-119" vertex="1">
          <mxGeometry x="20" y="890" width="350" height="60" as="geometry" />
        </mxCell>
        <mxCell id="wIaHaO2FN9Urou3l482N-201" value="" style="shape=trapezoid;perimeter=trapezoidPerimeter;whiteSpace=wrap;html=1;fixedSize=1;rounded=1;size=22.5;arcSize=17;rotation=-180;labelBackgroundColor=none;shadow=0;fillStyle=solid;allowArrows=1;snapToPoint=0;strokeWidth=2;perimeterSpacing=0;labelBorderColor=none;fillColor=#FFFFCC;fontSize=18;fontFamily=Verdana;sketch=1;curveFitting=1;jiggle=2;" parent="wIaHaO2FN9Urou3l482N-119" vertex="1">
          <mxGeometry x="20" y="970" width="350" height="60" as="geometry" />
        </mxCell>
        <mxCell id="wIaHaO2FN9Urou3l482N-23" value="Skumvaske-klud" style="rounded=1;whiteSpace=wrap;html=1;hachureGap=4;fontFamily=Verdana;fontSize=18;strokeWidth=1;direction=west;rotation=0;spacingRight=2;spacingLeft=2;shadow=0;sketch=1;curveFitting=1;jiggle=2;" parent="1" vertex="1">
          <mxGeometry x="795" y="-181" width="120" height="80" as="geometry" />
        </mxCell>
        <mxCell id="wIaHaO2FN9Urou3l482N-27" value="Filtdut" style="rounded=1;whiteSpace=wrap;html=1;hachureGap=4;fontFamily=Verdana;fontSize=18;strokeWidth=1;direction=west;rotation=0;spacingRight=2;spacingLeft=2;sketch=1;curveFitting=1;jiggle=2;shadow=0;" parent="1" vertex="1">
          <mxGeometry x="798" y="-84" width="110" height="80" as="geometry" />
        </mxCell>
        <mxCell id="hg8EG3NnJH5CYO38RCTZ-11" value="Pasta&lt;br style=&quot;font-size: 18px;&quot;&gt;Ten20" style="rounded=1;whiteSpace=wrap;html=1;hachureGap=4;fontFamily=Verdana;fontSize=18;strokeWidth=1;direction=west;rotation=0;spacingRight=2;spacingLeft=2;sketch=1;curveFitting=1;jiggle=2;" parent="1" vertex="1">
          <mxGeometry x="444" y="1646" width="120" height="80" as="geometry" />
        </mxCell>
        <mxCell id="Ygx26Ma0uc5o6EwyQJRm-12" value="SØVN skab th. (208)" style="swimlane;whiteSpace=wrap;html=1;hachureGap=4;fontFamily=Verdana;fontSize=18;swimlaneFillColor=#E6E6E6;startSize=35;rounded=0;labelBackgroundColor=none;fillStyle=solid;fillColor=#AB61A1;fontColor=#FFFFFF;shadow=1;fontStyle=0;glass=0;" vertex="1" parent="1">
          <mxGeometry x="81" y="2222" width="658" height="200" as="geometry" />
        </mxCell>
        <mxCell id="Ygx26Ma0uc5o6EwyQJRm-18" value="" style="shape=trapezoid;perimeter=trapezoidPerimeter;whiteSpace=wrap;html=1;fixedSize=1;rounded=1;size=22.5;arcSize=17;rotation=-180;labelBackgroundColor=none;shadow=0;fillStyle=solid;allowArrows=1;snapToPoint=0;strokeWidth=2;perimeterSpacing=0;labelBorderColor=none;fillColor=#EDC8DD;fontSize=18;fontFamily=Verdana;sketch=1;curveFitting=1;jiggle=2;" vertex="1" parent="Ygx26Ma0uc5o6EwyQJRm-12">
          <mxGeometry x="33" y="65" width="600" height="100" as="geometry" />
        </mxCell>
        <mxCell id="wIaHaO2FN9Urou3l482N-87" value="Netfiks. (S)" style="rounded=1;whiteSpace=wrap;html=1;hachureGap=4;fontFamily=Verdana;fontSize=18;strokeWidth=1;direction=west;rotation=-90;spacingRight=2;spacingLeft=2;sketch=1;curveFitting=1;jiggle=2;" parent="Ygx26Ma0uc5o6EwyQJRm-12" vertex="1">
          <mxGeometry x="60" y="89.5" width="80" height="50" as="geometry" />
        </mxCell>
        <mxCell id="wIaHaO2FN9Urou3l482N-88" value="Netfiks. (M)" style="rounded=1;whiteSpace=wrap;html=1;hachureGap=4;fontFamily=Verdana;fontSize=18;strokeWidth=1;direction=west;rotation=-90;spacingRight=2;spacingLeft=2;sketch=1;curveFitting=1;jiggle=2;" parent="Ygx26Ma0uc5o6EwyQJRm-12" vertex="1">
          <mxGeometry x="120" y="90.5" width="80" height="50" as="geometry" />
        </mxCell>
        <mxCell id="wIaHaO2FN9Urou3l482N-89" value="Netfiks. (L)" style="rounded=1;whiteSpace=wrap;html=1;hachureGap=4;fontFamily=Verdana;fontSize=18;strokeWidth=1;direction=west;rotation=-90;spacingRight=2;spacingLeft=2;sketch=1;curveFitting=1;jiggle=2;" parent="Ygx26Ma0uc5o6EwyQJRm-12" vertex="1">
          <mxGeometry x="180" y="90.5" width="80" height="50" as="geometry" />
        </mxCell>
        <mxCell id="Ygx26Ma0uc5o6EwyQJRm-41" value="Sprøjte 10ml" style="rounded=1;whiteSpace=wrap;html=1;hachureGap=4;fontFamily=Verdana;fontSize=18;strokeWidth=1;direction=west;rotation=0;spacingRight=2;spacingLeft=2;sketch=1;curveFitting=1;jiggle=2;" vertex="1" parent="Ygx26Ma0uc5o6EwyQJRm-12">
          <mxGeometry x="260" y="75.5" width="80" height="80" as="geometry" />
        </mxCell>
        <mxCell id="Ygx26Ma0uc5o6EwyQJRm-42" value="Dispens&lt;br style=&quot;font-size: 18px;&quot;&gt;tip" style="rounded=1;whiteSpace=wrap;html=1;hachureGap=4;fontFamily=Verdana;fontSize=18;strokeWidth=1;direction=west;rotation=0;spacingRight=2;spacingLeft=2;sketch=1;curveFitting=1;jiggle=2;" vertex="1" parent="Ygx26Ma0uc5o6EwyQJRm-12">
          <mxGeometry x="360" y="75.5" width="80" height="80" as="geometry" />
        </mxCell>
        <mxCell id="Ygx26Ma0uc5o6EwyQJRm-56" value="&lt;font style=&quot;font-size: 14px;&quot;&gt;6&lt;/font&gt;" style="ellipse;whiteSpace=wrap;html=1;aspect=fixed;sketch=1;curveFitting=1;jiggle=2;" vertex="1" parent="Ygx26Ma0uc5o6EwyQJRm-12">
          <mxGeometry x="21" y="54" width="29" height="29" as="geometry" />
        </mxCell>
        <mxCell id="Ygx26Ma0uc5o6EwyQJRm-57" value="Dec. 2023" style="rounded=1;whiteSpace=wrap;html=1;hachureGap=4;fontFamily=Verdana;fontSize=18;strokeWidth=1;direction=west;rotation=0;spacingRight=2;spacingLeft=2;shadow=0;sketch=1;curveFitting=1;jiggle=2;" vertex="1" parent="1">
          <mxGeometry x="82" y="-330" width="659" height="49" as="geometry" />
        </mxCell>
        <mxCell id="Ygx26Ma0uc5o6EwyQJRm-89" value="Revision feb. 2024" style="rounded=1;whiteSpace=wrap;html=1;hachureGap=4;fontFamily=Verdana;fontSize=18;strokeWidth=1;direction=west;rotation=0;spacingRight=2;spacingLeft=2;shadow=0;sketch=1;curveFitting=1;jiggle=2;" vertex="1" parent="1">
          <mxGeometry x="966" y="-334" width="659" height="49" as="geometry" />
        </mxCell>
        <mxCell id="Ygx26Ma0uc5o6EwyQJRm-93" value="EMG/ENG (201-204 + 206-207)" style="swimlane;whiteSpace=wrap;html=1;hachureGap=4;fontFamily=Verdana;fontSize=18;swimlaneFillColor=#E6E6E6;startSize=35;rounded=0;labelBackgroundColor=none;fillStyle=solid;fillColor=#B3400E;fontColor=#FFFFFF;shadow=1;fontStyle=0;glass=0;" vertex="1" parent="1">
          <mxGeometry x="81" y="587" width="659" height="441" as="geometry" />
        </mxCell>
        <mxCell id="Ygx26Ma0uc5o6EwyQJRm-97" value="" style="shape=trapezoid;perimeter=trapezoidPerimeter;whiteSpace=wrap;html=1;fixedSize=1;rounded=1;size=22.5;arcSize=17;rotation=-180;labelBackgroundColor=none;shadow=1;fillStyle=solid;allowArrows=1;snapToPoint=0;strokeWidth=2;perimeterSpacing=0;labelBorderColor=none;fillColor=#F0B199;fontSize=18;fontFamily=Verdana;sketch=1;curveFitting=1;jiggle=2;" vertex="1" parent="Ygx26Ma0uc5o6EwyQJRm-93">
          <mxGeometry x="35" y="64" width="600" height="100" as="geometry" />
        </mxCell>
        <mxCell id="Ygx26Ma0uc5o6EwyQJRm-98" value="" style="shape=trapezoid;perimeter=trapezoidPerimeter;whiteSpace=wrap;html=1;fixedSize=1;rounded=1;size=22.5;arcSize=17;rotation=-180;labelBackgroundColor=none;shadow=1;fillStyle=solid;allowArrows=1;snapToPoint=0;strokeWidth=2;perimeterSpacing=0;labelBorderColor=none;fillColor=#F0B199;fontSize=18;fontFamily=Verdana;sketch=1;curveFitting=1;jiggle=2;" vertex="1" parent="Ygx26Ma0uc5o6EwyQJRm-93">
          <mxGeometry x="35" y="184" width="600" height="100" as="geometry" />
        </mxCell>
        <mxCell id="Ygx26Ma0uc5o6EwyQJRm-99" value="" style="shape=trapezoid;perimeter=trapezoidPerimeter;whiteSpace=wrap;html=1;fixedSize=1;rounded=1;size=22.5;arcSize=17;rotation=-180;labelBackgroundColor=none;shadow=1;fillStyle=solid;allowArrows=1;snapToPoint=0;strokeWidth=2;perimeterSpacing=0;labelBorderColor=none;fillColor=#F0B199;fontSize=18;fontFamily=Verdana;sketch=1;curveFitting=1;jiggle=2;" vertex="1" parent="Ygx26Ma0uc5o6EwyQJRm-93">
          <mxGeometry x="35" y="307" width="600" height="100" as="geometry" />
        </mxCell>
        <mxCell id="Ygx26Ma0uc5o6EwyQJRm-121" value="&lt;font style=&quot;font-size: 14px;&quot;&gt;4&lt;/font&gt;" style="ellipse;whiteSpace=wrap;html=1;aspect=fixed;sketch=1;curveFitting=1;jiggle=2;" vertex="1" parent="Ygx26Ma0uc5o6EwyQJRm-93">
          <mxGeometry x="26" y="55" width="29" height="29" as="geometry" />
        </mxCell>
        <mxCell id="Ygx26Ma0uc5o6EwyQJRm-122" value="&lt;font style=&quot;font-size: 14px;&quot;&gt;5&lt;/font&gt;" style="ellipse;whiteSpace=wrap;html=1;aspect=fixed;sketch=1;curveFitting=1;jiggle=2;" vertex="1" parent="Ygx26Ma0uc5o6EwyQJRm-93">
          <mxGeometry x="26" y="178" width="29" height="29" as="geometry" />
        </mxCell>
        <mxCell id="Ygx26Ma0uc5o6EwyQJRm-123" value="&lt;font style=&quot;font-size: 14px;&quot;&gt;6&lt;/font&gt;" style="ellipse;whiteSpace=wrap;html=1;aspect=fixed;sketch=1;curveFitting=1;jiggle=2;" vertex="1" parent="Ygx26Ma0uc5o6EwyQJRm-93">
          <mxGeometry x="26" y="297" width="29" height="29" as="geometry" />
        </mxCell>
        <mxCell id="Ygx26Ma0uc5o6EwyQJRm-124" value="Nål&lt;br&gt;conc.&amp;nbsp;&lt;br&gt;25mm (rød)" style="rounded=1;whiteSpace=wrap;html=1;hachureGap=4;fontFamily=Verdana;fontSize=18;strokeWidth=1;direction=west;rotation=0;spacingRight=2;spacingLeft=2;sketch=1;curveFitting=1;jiggle=2;" vertex="1" parent="Ygx26Ma0uc5o6EwyQJRm-93">
          <mxGeometry x="348" y="74" width="229" height="80" as="geometry" />
        </mxCell>
        <mxCell id="Ygx26Ma0uc5o6EwyQJRm-125" value="Nål&lt;br&gt;subd./nn 20mm" style="rounded=1;whiteSpace=wrap;html=1;hachureGap=4;fontFamily=Verdana;fontSize=18;strokeWidth=1;direction=west;rotation=0;spacingRight=2;spacingLeft=2;sketch=1;curveFitting=1;jiggle=2;" vertex="1" parent="Ygx26Ma0uc5o6EwyQJRm-93">
          <mxGeometry x="101" y="72" width="221" height="80" as="geometry" />
        </mxCell>
        <mxCell id="Ygx26Ma0uc5o6EwyQJRm-126" value="Nål&lt;br&gt;conc.&amp;nbsp;&lt;br&gt;27mm (grøn)" style="rounded=1;whiteSpace=wrap;html=1;hachureGap=4;fontFamily=Verdana;fontSize=18;strokeWidth=1;direction=west;rotation=0;spacingRight=2;spacingLeft=2;sketch=1;curveFitting=1;jiggle=2;" vertex="1" parent="Ygx26Ma0uc5o6EwyQJRm-93">
          <mxGeometry x="348" y="195" width="229" height="80" as="geometry" />
        </mxCell>
        <mxCell id="Ygx26Ma0uc5o6EwyQJRm-127" value="Nål&lt;br&gt;subd./nn 30mm" style="rounded=1;whiteSpace=wrap;html=1;hachureGap=4;fontFamily=Verdana;fontSize=18;strokeWidth=1;direction=west;rotation=0;spacingRight=2;spacingLeft=2;sketch=1;curveFitting=1;jiggle=2;" vertex="1" parent="Ygx26Ma0uc5o6EwyQJRm-93">
          <mxGeometry x="101" y="193" width="221" height="80" as="geometry" />
        </mxCell>
        <mxCell id="Ygx26Ma0uc5o6EwyQJRm-128" value="Nål&lt;br&gt;conc.&amp;nbsp;&lt;br&gt;25mm (violet)" style="rounded=1;whiteSpace=wrap;html=1;hachureGap=4;fontFamily=Verdana;fontSize=18;strokeWidth=1;direction=west;rotation=0;spacingRight=2;spacingLeft=2;sketch=1;curveFitting=1;jiggle=2;" vertex="1" parent="Ygx26Ma0uc5o6EwyQJRm-93">
          <mxGeometry x="348" y="318" width="229" height="80" as="geometry" />
        </mxCell>
        <mxCell id="Ygx26Ma0uc5o6EwyQJRm-129" value="Nål&lt;br&gt;subd./nn 50mm" style="rounded=1;whiteSpace=wrap;html=1;hachureGap=4;fontFamily=Verdana;fontSize=18;strokeWidth=1;direction=west;rotation=0;spacingRight=2;spacingLeft=2;sketch=1;curveFitting=1;jiggle=2;" vertex="1" parent="Ygx26Ma0uc5o6EwyQJRm-93">
          <mxGeometry x="101" y="316" width="221" height="80" as="geometry" />
        </mxCell>
      </root>
    </mxGraphModel>
  </diagram>
</mxfile>
